<svg width="200" height="127" viewBox="0 0 200 127" fill="none" xmlns="http://www.w3.org/2000/svg">
<path fill-rule="evenodd" clip-rule="evenodd" d="M139.091 86.8136C139.091 88.1883 138.404 88.8756 137.029 88.8756H125.761C117.507 88.8756 110.55 86.0454 104.89 80.3851C99.2292 74.7247 96.4 67.7685 96.4019 59.5166V2.22171C96.4019 0.847016 97.0901 0.159668 98.4667 0.159668H114.336C115.713 0.179632 116.4 0.827052 116.4 2.22171V59.5166C116.38 60.7517 116.609 61.9783 117.072 63.1234C117.536 64.2684 118.225 65.3086 119.098 66.1821C119.972 67.0556 121.012 67.7445 122.157 68.208C123.302 68.6714 124.529 68.8999 125.764 68.8799H137.032C138.407 68.8799 139.094 69.5672 139.094 70.9419V86.8136H139.091Z" fill="#1C1B1B"/>
<path fill-rule="evenodd" clip-rule="evenodd" d="M70.7823 88.8757C69.4076 88.8757 68.7202 88.1883 68.7202 86.8136V29.3761C68.7349 28.1532 68.5036 26.9399 68.0401 25.8081C67.5766 24.6763 66.8904 23.6493 66.0222 22.7879C65.1905 21.8974 64.182 21.1906 63.0612 20.7127C61.9404 20.2348 60.7321 19.9965 59.5138 20.0129H54.594V86.8136C54.594 88.1883 53.9067 88.8757 52.532 88.8757H36.6603C35.2856 88.8757 34.5983 88.1883 34.5983 86.8136V19.9986H29.359C28.1226 19.9781 26.8946 20.2068 25.7484 20.671C24.6022 21.1352 23.5612 21.8254 22.6874 22.7005C21.8137 23.5756 21.1251 24.6176 20.6626 25.7645C20.2002 26.9114 19.9734 28.1397 19.9957 29.3761V86.8136C19.9957 88.1883 19.3084 88.8757 17.9337 88.8757H2.06203C0.687344 88.8757 0 88.1883 0 86.8136V29.3761C0 21.2288 2.85205 14.2983 8.55616 8.58468C14.2603 2.87107 21.1946 0.00950684 29.359 0H59.5138C67.6612 0 74.565 2.8568 80.2254 8.57042C85.8858 14.284 88.716 21.2193 88.716 29.3761V86.8136C88.716 88.1883 88.0286 88.8757 86.6539 88.8757H70.7823Z" fill="#1C1B1B"/>
<path fill-rule="evenodd" clip-rule="evenodd" d="M182.058 31.5835C178.695 31.5835 181.105 26.658 177.298 22.8534C176.455 21.9835 175.443 21.2955 174.324 20.8315C173.205 20.3675 172.003 20.1374 170.792 20.1553C168.145 20.1553 165.924 21.028 164.127 22.7735C162.33 24.519 161.431 26.7198 161.429 29.376V59.5165C161.409 60.7517 161.639 61.9781 162.102 63.123C162.566 64.2679 163.256 65.3079 164.129 66.1813C165.003 67.0546 166.043 67.7436 167.188 68.2071C168.333 68.6707 169.56 68.8994 170.795 68.8798C173.438 68.8798 175.633 67.9804 177.38 66.1817C179.128 64.383 180 62.1613 179.998 59.5165C179.998 58.1855 180.633 57.4982 181.904 57.4545H197.935C199.31 57.4545 199.998 58.1428 200 59.5194C200 67.6648 197.169 74.5944 191.506 80.308C185.844 86.0216 178.941 88.8736 170.798 88.8641C162.544 88.8641 155.587 86.0339 149.926 80.3736C144.266 74.7132 141.436 67.757 141.436 59.5051V29.376C141.436 21.2286 144.288 14.3248 149.992 8.6644C155.696 3.00402 162.627 0.173828 170.783 0.173828C178.929 0.173828 185.832 3.00402 191.492 8.6644C197.153 14.3248 199.987 21.2286 199.994 29.376C199.994 30.8572 199.306 31.5978 197.929 31.5978L182.058 31.5835Z" fill="#1C1B1B"/>
<path d="M7.98842 126.543C6.54035 126.582 5.10157 126.3 3.77594 125.716C2.65225 125.202 1.7106 124.36 1.07505 123.3C0.405312 122.13 0.0478137 120.807 0.0368979 119.458C0.0197856 118.698 0.0112305 117.892 0.0112305 117.042C0.0112305 116.187 0.0112294 115.371 0.0368979 114.601C0.0484587 113.282 0.406456 111.988 1.07505 110.851C1.72656 109.805 2.67612 108.977 3.80161 108.475C5.11976 107.896 6.54908 107.613 7.98842 107.648C9.1488 107.627 10.3048 107.795 11.4109 108.147C12.3056 108.436 13.1447 108.874 13.8922 109.445C14.5114 109.918 15.0284 110.512 15.4123 111.19C15.7345 111.751 15.9192 112.381 15.9514 113.027C15.9532 113.1 15.9402 113.172 15.9132 113.24C15.8863 113.307 15.8459 113.369 15.7945 113.42C15.7387 113.474 15.6725 113.516 15.5999 113.544C15.5273 113.571 15.4499 113.584 15.3724 113.58H12.0982C11.9555 113.588 11.8139 113.551 11.6932 113.475C11.5866 113.39 11.5015 113.282 11.4451 113.158C11.2945 112.816 11.0946 112.498 10.8519 112.214C10.5544 111.862 10.1835 111.58 9.76525 111.387C9.20401 111.149 8.59754 111.037 7.98842 111.059C6.88753 111.059 6.0167 111.344 5.37594 111.915C4.73708 112.485 4.39199 113.429 4.34065 114.721C4.28931 116.227 4.28931 117.758 4.34065 119.316C4.39199 120.662 4.75039 121.632 5.41587 122.228C6.14673 122.845 7.08388 123.164 8.03976 123.12C8.70315 123.131 9.36122 123 9.9706 122.738C10.5303 122.491 11.0011 122.079 11.3196 121.557C11.6728 120.931 11.8428 120.219 11.8102 119.501V118.845H8.95812C8.87421 118.846 8.79108 118.829 8.71434 118.795C8.63759 118.761 8.56901 118.711 8.5132 118.648C8.39431 118.525 8.32872 118.36 8.33067 118.189V116.509C8.32731 116.422 8.34177 116.335 8.37315 116.254C8.40454 116.172 8.45219 116.098 8.5132 116.036C8.57133 115.977 8.64068 115.931 8.71712 115.899C8.79355 115.868 8.87551 115.852 8.95812 115.853H15.4038C15.4909 115.85 15.5778 115.864 15.659 115.896C15.7402 115.927 15.814 115.976 15.8757 116.037C15.9373 116.099 15.9855 116.173 16.0172 116.254C16.0489 116.335 16.0634 116.422 16.0597 116.509V119.361C16.0993 120.715 15.7531 122.052 15.0615 123.217C14.3842 124.296 13.4028 125.151 12.2408 125.673C10.9043 126.271 9.45254 126.568 7.98842 126.543Z" fill="#1C1B1B"/>
<path d="M23.0159 126.28C22.9418 126.282 22.8683 126.267 22.8003 126.238C22.7324 126.208 22.6716 126.164 22.6223 126.109C22.5223 126.008 22.4659 125.872 22.4654 125.73C22.4644 125.65 22.473 125.571 22.4911 125.493L28.7371 108.62C28.7892 108.426 28.8985 108.252 29.0508 108.121C29.2356 107.972 29.4695 107.897 29.7068 107.91H33.0665C33.3038 107.897 33.5377 107.972 33.7225 108.121C33.8765 108.256 33.9934 108.428 34.0619 108.62L40.2822 125.49C40.3175 125.564 40.3351 125.645 40.3335 125.727C40.3322 125.798 40.3167 125.869 40.2878 125.934C40.2589 125.999 40.2172 126.058 40.1653 126.106C40.1121 126.161 40.0486 126.204 39.9786 126.233C39.9086 126.262 39.8334 126.278 39.7574 126.278H37.0023C36.9028 126.285 36.8028 126.273 36.7082 126.241C36.6136 126.209 36.5264 126.158 36.4519 126.092C36.3479 125.999 36.267 125.883 36.2152 125.753L35.0743 122.812H27.6875L26.5838 125.753C26.518 125.877 26.4344 125.992 26.3356 126.092C26.2587 126.161 26.1682 126.213 26.07 126.245C25.9718 126.277 25.868 126.288 25.7652 126.278L23.0159 126.28ZM28.6829 119.435H34.1018L31.3752 111.9L28.6829 119.435Z" fill="#1C1B1B"/>
<path d="M54.1372 126.543C52.6938 126.588 51.2564 126.337 49.9133 125.807C48.9024 125.408 48.0163 124.746 47.3465 123.89C46.7912 123.164 46.4708 122.285 46.4281 121.372C46.4266 121.299 46.4397 121.227 46.4667 121.159C46.4936 121.092 46.5338 121.03 46.5849 120.978C46.6364 120.927 46.6978 120.886 46.7655 120.859C46.8332 120.832 46.9057 120.819 46.9785 120.821H49.8135C49.9978 120.809 50.1813 120.855 50.3383 120.953C50.4688 121.049 50.5842 121.164 50.6805 121.295C50.8158 121.628 51.0166 121.93 51.2709 122.185C51.5829 122.491 51.9588 122.725 52.3718 122.869C52.9335 123.059 53.5245 123.148 54.1172 123.132C55.258 123.132 56.1137 122.947 56.6841 122.578C56.9461 122.427 57.1633 122.209 57.3136 121.946C57.4639 121.684 57.5419 121.386 57.5397 121.084C57.5455 120.882 57.5075 120.681 57.4282 120.496C57.3489 120.31 57.2303 120.144 57.0805 120.009C56.6537 119.663 56.1635 119.404 55.6374 119.247C54.7812 118.963 53.91 118.727 53.0277 118.54C51.8729 118.295 50.7496 117.92 49.6794 117.422C48.8429 117.047 48.1263 116.447 47.6088 115.691C47.1284 114.862 46.8896 113.915 46.9193 112.957C46.9491 111.999 47.2462 111.069 47.7771 110.272C48.4005 109.422 49.2448 108.759 50.2185 108.355C52.4156 107.511 54.8333 107.432 57.0805 108.133C57.9015 108.402 58.6662 108.819 59.3365 109.365C59.894 109.816 60.3613 110.369 60.714 110.993C61.0112 111.505 61.1823 112.079 61.2131 112.67C61.2161 112.819 61.1655 112.964 61.0705 113.078C61.0199 113.135 60.9569 113.181 60.8862 113.21C60.8156 113.24 60.7392 113.253 60.6627 113.249H57.7308C57.5677 113.252 57.4064 113.216 57.2602 113.144C57.1044 113.059 56.9765 112.932 56.8923 112.776C56.8338 112.523 56.7232 112.285 56.5675 112.077C56.4119 111.869 56.2145 111.696 55.9882 111.569C55.384 111.216 54.6912 111.043 53.9917 111.07C53.2847 111.034 52.5813 111.193 51.9582 111.529C51.7158 111.677 51.5181 111.887 51.3864 112.139C51.2548 112.39 51.1941 112.672 51.211 112.955C51.1993 113.347 51.3404 113.727 51.6046 114.016C51.9668 114.367 52.4065 114.628 52.888 114.778C53.6798 115.054 54.4862 115.287 55.3037 115.474C56.5841 115.713 57.8335 116.096 59.0285 116.615C59.8836 116.975 60.6207 117.568 61.1561 118.326C61.6352 119.111 61.8723 120.019 61.8377 120.938C61.8647 122.025 61.5218 123.089 60.8652 123.956C60.1614 124.837 59.2261 125.504 58.1643 125.884C56.8744 126.351 55.5088 126.575 54.1372 126.543Z" fill="#1C1B1B"/>
<path d="M74.3959 126.28C74.3085 126.283 74.2214 126.268 74.14 126.236C74.0586 126.204 73.9845 126.156 73.9224 126.095C73.8613 126.033 73.8136 125.959 73.7822 125.878C73.7508 125.798 73.7364 125.711 73.7399 125.624V111.584H68.9627C68.88 111.585 68.7978 111.57 68.7213 111.538C68.6448 111.507 68.5755 111.46 68.5178 111.401C68.4566 111.339 68.4089 111.265 68.3775 111.183C68.3461 111.102 68.3317 111.015 68.3352 110.928V108.566C68.3319 108.479 68.3464 108.393 68.3778 108.312C68.4092 108.231 68.4568 108.157 68.5178 108.095C68.5754 108.036 68.6445 107.989 68.7211 107.957C68.7976 107.925 68.8798 107.909 68.9627 107.91H82.7124C82.7994 107.907 82.8862 107.922 82.9672 107.954C83.0482 107.985 83.1218 108.034 83.1834 108.095C83.245 108.157 83.2932 108.23 83.325 108.311C83.3568 108.392 83.3716 108.479 83.3684 108.566V110.928C83.372 111.015 83.3576 111.102 83.3259 111.183C83.2942 111.264 83.246 111.338 83.1843 111.399C83.1227 111.461 83.0489 111.509 82.9677 111.541C82.8865 111.573 82.7996 111.587 82.7124 111.584H77.9638V125.624C77.9672 125.711 77.9528 125.798 77.9214 125.878C77.89 125.959 77.8423 126.033 77.7812 126.095C77.7191 126.156 77.6451 126.204 77.5637 126.236C77.4822 126.268 77.3952 126.283 77.3078 126.28H74.3959Z" fill="#1C1B1B"/>
<path d="M91.7675 126.28C91.6842 126.282 91.6015 126.266 91.5245 126.234C91.4474 126.202 91.3778 126.155 91.3198 126.095C91.2587 126.033 91.211 125.96 91.1796 125.879C91.1482 125.798 91.1338 125.711 91.1372 125.624V108.566C91.1339 108.479 91.1484 108.393 91.1798 108.312C91.2112 108.231 91.2588 108.157 91.3198 108.096C91.3778 108.036 91.4474 107.988 91.5245 107.957C91.6015 107.925 91.6842 107.909 91.7675 107.91H98.7465C100.933 107.91 102.657 108.413 103.917 109.419C105.178 110.425 105.81 111.873 105.814 113.763C105.856 114.9 105.534 116.021 104.896 116.963C104.276 117.827 103.419 118.492 102.429 118.879L106.156 125.439C106.203 125.527 106.229 125.625 106.233 125.724C106.228 125.869 106.169 126.006 106.066 126.108C105.964 126.21 105.827 126.27 105.683 126.275H102.745C102.616 126.285 102.486 126.268 102.363 126.225C102.241 126.182 102.129 126.113 102.035 126.024C101.9 125.888 101.785 125.733 101.696 125.564L98.4841 119.561H95.3098V125.624C95.313 125.711 95.2982 125.798 95.2664 125.879C95.2345 125.96 95.1863 126.034 95.1248 126.095C95.0632 126.157 94.9896 126.205 94.9086 126.237C94.8275 126.269 94.7408 126.284 94.6538 126.28H91.7675ZM95.3098 116.23H98.6838C99.6344 116.23 100.338 116.011 100.794 115.574C101.033 115.334 101.219 115.047 101.339 114.73C101.459 114.413 101.511 114.075 101.49 113.737C101.508 113.396 101.457 113.055 101.34 112.735C101.223 112.414 101.042 112.121 100.809 111.872C100.352 111.419 99.644 111.192 98.6838 111.19H95.3098V116.23Z" fill="#1C1B1B"/>
<path d="M121.5 126.543C120.086 126.578 118.68 126.31 117.379 125.756C116.256 125.259 115.312 124.429 114.675 123.38C114.026 122.321 113.677 120.99 113.625 119.387C113.608 118.626 113.6 117.878 113.6 117.142C113.6 116.401 113.6 115.642 113.625 114.861C113.628 113.466 113.995 112.097 114.689 110.888C115.333 109.821 116.285 108.975 117.419 108.458C118.707 107.921 120.09 107.645 121.486 107.645C122.882 107.645 124.264 107.921 125.553 108.458C126.689 108.977 127.644 109.823 128.296 110.888C128.996 112.095 129.366 113.465 129.371 114.861C129.406 115.631 129.423 116.389 129.423 117.142C129.423 117.895 129.406 118.634 129.371 119.387C129.316 120.995 128.962 122.326 128.308 123.38C127.664 124.428 126.717 125.257 125.592 125.756C124.3 126.308 122.905 126.576 121.5 126.543ZM121.5 123.12C122.422 123.153 123.321 122.823 124.004 122.202C124.66 121.59 125.005 120.601 125.039 119.236C125.077 118.466 125.095 117.744 125.093 117.071C125.091 116.398 125.073 115.685 125.039 114.932C125.054 114.16 124.884 113.395 124.543 112.702C124.266 112.164 123.831 111.725 123.297 111.441C122.735 111.182 122.124 111.048 121.506 111.048C120.887 111.048 120.276 111.182 119.714 111.441C119.173 111.72 118.733 112.16 118.454 112.702C118.11 113.395 117.931 114.158 117.929 114.932C117.912 115.693 117.903 116.406 117.903 117.071C117.903 117.737 117.912 118.458 117.929 119.236C117.98 120.599 118.33 121.588 118.979 122.202C119.664 122.832 120.57 123.166 121.5 123.132V123.12Z" fill="#1C1B1B"/>
<path d="M138.528 126.28C138.445 126.282 138.363 126.266 138.286 126.234C138.209 126.202 138.14 126.155 138.083 126.095C138.022 126.033 137.974 125.96 137.943 125.879C137.911 125.798 137.897 125.711 137.9 125.624V108.566C137.897 108.48 137.911 108.393 137.943 108.312C137.974 108.231 138.022 108.158 138.083 108.096C138.14 108.036 138.209 107.989 138.286 107.957C138.363 107.925 138.445 107.909 138.528 107.91H146.348C147.573 107.869 148.793 108.083 149.93 108.541C150.793 108.897 151.516 109.523 151.992 110.326C152.443 111.154 152.668 112.085 152.645 113.027C152.659 113.617 152.538 114.202 152.292 114.738C152.084 115.191 151.794 115.601 151.436 115.947C151.142 116.227 150.811 116.465 150.452 116.655C151.181 117.009 151.804 117.548 152.26 118.218C152.795 118.971 153.071 119.878 153.047 120.802C153.071 121.812 152.813 122.81 152.303 123.682C151.781 124.525 151.018 125.192 150.113 125.596C149.006 126.082 147.805 126.316 146.596 126.28H138.528ZM142.073 115.337H145.849C146.672 115.337 147.289 115.132 147.7 114.721C147.905 114.512 148.066 114.264 148.172 113.99C148.278 113.717 148.327 113.425 148.316 113.132C148.329 112.845 148.281 112.559 148.175 112.292C148.069 112.025 147.907 111.783 147.7 111.584C147.289 111.204 146.672 111.013 145.849 111.013H142.073V115.337ZM142.073 123.183H146.086C146.943 123.183 147.59 122.943 148.028 122.462C148.456 122.003 148.691 121.397 148.684 120.77C148.691 120.455 148.636 120.141 148.522 119.848C148.407 119.554 148.235 119.286 148.016 119.059C147.569 118.594 146.927 118.363 146.086 118.363H142.073V123.183Z" fill="#1C1B1B"/>
<path d="M160.045 126.28C159.971 126.282 159.898 126.267 159.83 126.238C159.762 126.208 159.701 126.164 159.652 126.109C159.552 126.008 159.495 125.872 159.495 125.73C159.494 125.65 159.503 125.571 159.521 125.493L165.767 108.62C165.819 108.426 165.928 108.252 166.08 108.121C166.265 107.972 166.499 107.897 166.736 107.91H170.096C170.333 107.897 170.567 107.972 170.752 108.121C170.906 108.256 171.024 108.428 171.094 108.62L177.312 125.49C177.348 125.564 177.367 125.645 177.366 125.727C177.364 125.799 177.348 125.869 177.319 125.934C177.289 125.999 177.247 126.058 177.195 126.106C177.142 126.161 177.078 126.204 177.008 126.233C176.938 126.262 176.863 126.278 176.787 126.278H174.032C173.932 126.285 173.832 126.272 173.738 126.24C173.643 126.209 173.556 126.158 173.481 126.092C173.378 125.999 173.297 125.883 173.245 125.753L172.104 122.812H164.717L163.616 125.753C163.548 125.877 163.464 125.991 163.365 126.092C163.288 126.161 163.198 126.213 163.1 126.245C163.001 126.277 162.898 126.288 162.795 126.278L160.045 126.28ZM165.712 119.435H171.131L168.428 111.906L165.712 119.435Z" fill="#1C1B1B"/>
<path d="M185.472 126.28C185.389 126.281 185.307 126.265 185.23 126.234C185.154 126.202 185.085 126.155 185.027 126.095C184.966 126.033 184.918 125.96 184.887 125.879C184.855 125.798 184.841 125.711 184.844 125.624V108.566C184.841 108.479 184.856 108.393 184.887 108.312C184.918 108.231 184.966 108.157 185.027 108.096C185.085 108.036 185.154 107.989 185.23 107.957C185.307 107.925 185.389 107.909 185.472 107.91H192.454C194.642 107.91 196.365 108.413 197.622 109.419C198.879 110.425 199.509 111.873 199.513 113.763C199.554 114.9 199.233 116.021 198.594 116.963C197.975 117.827 197.118 118.492 196.127 118.879L199.852 125.439C199.9 125.526 199.928 125.624 199.932 125.724C199.923 125.867 199.862 126.002 199.761 126.104C199.66 126.205 199.525 126.266 199.381 126.275H196.441C196.312 126.285 196.182 126.268 196.061 126.224C195.939 126.181 195.827 126.113 195.734 126.024C195.599 125.887 195.483 125.733 195.391 125.564L192.191 119.555H189.017V125.619C189.02 125.706 189.005 125.792 188.974 125.873C188.942 125.954 188.894 126.028 188.832 126.09C188.77 126.151 188.697 126.199 188.616 126.231C188.535 126.263 188.448 126.278 188.361 126.275L185.472 126.28ZM189.017 116.23H192.4C193.35 116.23 194.055 116.011 194.513 115.574C194.752 115.334 194.938 115.047 195.058 114.73C195.178 114.413 195.229 114.075 195.209 113.737C195.227 113.396 195.176 113.055 195.059 112.735C194.942 112.414 194.761 112.121 194.527 111.872C194.071 111.418 193.364 111.19 192.4 111.19H189.017V116.23Z" fill="#1C1B1B"/>
</svg>
