<svg width="100" height="45" viewBox="0 0 100 45" fill="none" xmlns="http://www.w3.org/2000/svg">
<path fill-rule="evenodd" clip-rule="evenodd" d="M69.5458 43.7435C69.5458 44.4308 69.2022 44.7745 68.5148 44.7745H62.8806C58.7536 44.7745 55.2751 43.3594 52.4449 40.5292C49.6147 37.699 48.2001 34.221 48.2011 30.095V1.44752C48.2011 0.760178 48.5452 0.416504 49.2335 0.416504H57.1679C57.8567 0.426486 58.2003 0.750196 58.2003 1.44752V30.095C58.1903 30.7125 58.3046 31.3258 58.5363 31.8984C58.768 32.4709 59.1125 32.991 59.5492 33.4277C59.986 33.8645 60.5061 34.209 61.0786 34.4407C61.6512 34.6724 62.2644 34.7867 62.882 34.7766H68.5162C69.2036 34.7766 69.5472 35.1203 69.5472 35.8076V43.7435H69.5458Z" fill="#1C1B1B"/>
<path fill-rule="evenodd" clip-rule="evenodd" d="M35.3911 44.8544C34.7038 44.8544 34.3601 44.5107 34.3601 43.8233V15.1046C34.3674 14.4931 34.2518 13.8864 34.0201 13.3206C33.7883 12.7547 33.4452 12.2411 33.0111 11.8105C32.5953 11.3652 32.091 11.0118 31.5306 10.7729C30.9702 10.5339 30.3661 10.4147 29.7569 10.4229H27.297V43.8233C27.297 44.5107 26.9533 44.8544 26.266 44.8544H18.3302C17.6428 44.8544 17.2991 44.5107 17.2991 43.8233V10.4158H14.6795C14.0613 10.4056 13.4473 10.5199 12.8742 10.752C12.3011 10.9841 11.7806 11.3292 11.3437 11.7667C10.9068 12.2043 10.5625 12.7253 10.3313 13.2988C10.1001 13.8722 9.98669 14.4864 9.99788 15.1046V43.8233C9.99788 44.5107 9.6542 44.8544 8.96686 44.8544H1.03102C0.343672 44.8544 0 44.5107 0 43.8233V15.1046C0 11.0309 1.42603 7.56565 4.27808 4.70885C7.13014 1.85204 10.5973 0.421257 14.6795 0.416504H29.7569C33.8306 0.416504 37.2825 1.84491 40.1127 4.70171C42.9429 7.55852 44.358 11.0261 44.358 15.1046V43.8233C44.358 44.5107 44.0143 44.8544 43.327 44.8544H35.3911Z" fill="#1C1B1B"/>
<path fill-rule="evenodd" clip-rule="evenodd" d="M91.0289 16.1213C89.3476 16.1213 90.5526 13.6586 88.6489 11.7563C88.2274 11.3214 87.7214 10.9773 87.162 10.7453C86.6026 10.5133 86.0017 10.3983 85.3961 10.4073C84.0728 10.4073 82.9619 10.8436 82.0635 11.7163C81.1651 12.5891 80.7154 13.6895 80.7145 15.0176V30.0879C80.7048 30.7054 80.8194 31.3187 81.0514 31.8911C81.2833 32.4636 81.6279 32.9836 82.0647 33.4202C82.5016 33.8569 83.0217 34.2014 83.5942 34.4332C84.1667 34.6649 84.78 34.7793 85.3975 34.7695C86.719 34.7695 87.8166 34.3198 88.6902 33.4205C89.5639 32.5211 90.0003 31.4103 89.9993 30.0879C89.9993 29.4224 90.3169 29.0787 90.9519 29.0568H98.9676C99.655 29.0568 99.9991 29.401 100 30.0893C100 34.162 98.5845 37.6268 95.7534 40.4836C92.9222 43.3404 89.4707 44.7664 85.399 44.7617C81.272 44.7617 77.7935 43.3466 74.9633 40.5164C72.1331 37.6862 70.718 34.2081 70.718 30.0821V15.0176C70.718 10.9439 72.144 7.49198 74.9961 4.66179C77.8482 1.8316 81.3134 0.416504 85.3918 0.416504C89.4646 0.416504 92.916 1.8316 95.7462 4.66179C98.5764 7.49198 99.9934 10.9439 99.9972 15.0176C99.9972 15.7582 99.6531 16.1285 98.9648 16.1285L91.0289 16.1213Z" fill="#1C1B1B"/>
</svg>
