<svg width="345" height="218" viewBox="0 0 345 218" fill="none" xmlns="http://www.w3.org/2000/svg">
<path fill-rule="evenodd" clip-rule="evenodd" d="M239.608 149.551C239.608 151.919 238.424 153.103 236.056 153.103H216.644C202.426 153.103 190.441 148.227 180.69 138.477C170.939 128.726 166.065 116.742 166.068 102.527V3.82711C166.068 1.45897 167.254 0.274902 169.625 0.274902H196.962C199.335 0.309294 200.519 1.42458 200.519 3.82711V102.527C200.485 104.655 200.878 106.768 201.677 108.74C202.475 110.713 203.662 112.505 205.167 114.01C206.671 115.514 208.463 116.701 210.436 117.499C212.408 118.298 214.521 118.691 216.649 118.657H236.061C238.429 118.657 239.613 119.841 239.613 122.209V149.551H239.608Z" fill="#1C1B1B"/>
<path fill-rule="evenodd" clip-rule="evenodd" d="M121.934 153.103C119.566 153.103 118.382 151.919 118.382 149.551V50.6053C118.407 48.4987 118.009 46.4084 117.21 44.4587C116.412 42.5091 115.23 40.7398 113.734 39.256C112.302 37.722 110.564 36.5044 108.633 35.6811C106.703 34.8579 104.621 34.4472 102.522 34.4755H94.0473V149.551C94.0473 151.919 92.8632 153.103 90.4951 153.103H63.1535C60.7853 153.103 59.6013 151.919 59.6013 149.551V34.4509H50.5758C48.4458 34.4156 46.3305 34.8095 44.356 35.6092C42.3814 36.4088 40.5881 37.5978 39.0829 39.1053C37.5777 40.6128 36.3914 42.408 35.5948 44.3837C34.7981 46.3595 34.4075 48.4754 34.446 50.6053V149.551C34.446 151.919 33.2619 153.103 30.8938 153.103H3.5522C1.18406 153.103 0 151.919 0 149.551V50.6053C0 36.5701 4.91314 24.6312 14.7394 14.7885C24.5657 4.94589 36.5112 0.0163771 50.5758 0H102.522C116.558 0 128.451 4.92132 138.202 14.764C147.953 24.6066 152.828 36.5537 152.828 50.6053V149.551C152.828 151.919 151.644 153.103 149.276 153.103H121.934Z" fill="#1C1B1B"/>
<path fill-rule="evenodd" clip-rule="evenodd" d="M313.625 54.4082C307.832 54.4082 311.984 45.9232 305.425 39.3691C303.973 37.8707 302.23 36.6853 300.302 35.886C298.375 35.0867 296.304 34.6903 294.218 34.7213C289.659 34.7213 285.831 36.2247 282.736 39.2315C279.641 42.2384 278.092 46.0297 278.088 50.6054V102.527C278.055 104.655 278.45 106.768 279.249 108.74C280.048 110.713 281.235 112.504 282.74 114.009C284.245 115.513 286.037 116.7 288.01 117.498C289.982 118.297 292.095 118.691 294.223 118.657C298.776 118.657 302.557 117.108 305.567 114.009C308.578 110.911 310.081 107.084 310.078 102.527C310.078 100.235 311.172 99.0506 313.36 98.9753H340.976C343.345 98.9753 344.53 100.161 344.534 102.532C344.534 116.564 339.656 128.502 329.902 138.344C320.148 148.187 308.257 153.1 294.228 153.084C280.009 153.084 268.025 148.208 258.274 138.457C248.523 128.706 243.647 116.723 243.647 102.508V50.6054C243.647 36.5702 248.56 24.6772 258.387 14.9262C268.213 5.17528 280.152 0.299805 294.203 0.299805C308.235 0.299805 320.127 5.17528 329.878 14.9262C339.629 24.6772 344.511 36.5702 344.524 50.6054C344.524 53.157 343.338 54.4328 340.967 54.4328L313.625 54.4082Z" fill="#1C1B1B"/>
<path d="M13.7613 217.991C11.2668 218.059 8.78825 217.572 6.50463 216.566C4.56889 215.681 2.94673 214.23 1.85189 212.405C0.698158 210.388 0.0823079 208.109 0.0635035 205.787C0.0340247 204.476 0.0192871 203.089 0.0192871 201.625C0.0192871 200.151 0.0192853 198.746 0.0635035 197.42C0.0834189 195.147 0.700128 192.919 1.85189 190.959C2.97423 189.157 4.61 187.731 6.54885 186.866C8.81958 185.869 11.2818 185.382 13.7613 185.441C15.7603 185.405 17.7517 185.696 19.6571 186.301C21.1984 186.798 22.6439 187.554 23.9315 188.537C24.9982 189.352 25.889 190.375 26.5502 191.543C27.1052 192.51 27.4234 193.594 27.4788 194.708C27.4819 194.833 27.4596 194.958 27.4131 195.074C27.3667 195.191 27.2971 195.297 27.2086 195.386C27.1125 195.478 26.9984 195.551 26.8734 195.598C26.7484 195.645 26.615 195.667 26.4815 195.661H20.8412C20.5953 195.674 20.3514 195.611 20.1435 195.479C19.9597 195.334 19.8132 195.147 19.7161 194.934C19.4566 194.344 19.1123 193.797 18.6941 193.307C18.1817 192.701 17.5427 192.215 16.8222 191.882C15.8554 191.473 14.8106 191.28 13.7613 191.317C11.8649 191.317 10.3647 191.809 9.2609 192.791C8.16035 193.774 7.56587 195.4 7.47743 197.626C7.389 200.22 7.389 202.858 7.47743 205.541C7.56587 207.86 8.18328 209.532 9.32968 210.557C10.5887 211.621 12.2031 212.171 13.8498 212.095C14.9926 212.113 16.1262 211.889 17.176 211.437C18.1401 211.012 18.9511 210.302 19.4999 209.403C20.1083 208.325 20.4011 207.097 20.3449 205.86V204.73H15.4318C15.2872 204.732 15.144 204.702 15.0118 204.644C14.8796 204.585 14.7615 204.499 14.6653 204.391C14.4605 204.179 14.3476 203.895 14.3509 203.6V200.706C14.3451 200.556 14.37 200.407 14.4241 200.266C14.4782 200.126 14.5602 199.998 14.6653 199.891C14.7655 199.79 14.885 199.71 15.0166 199.656C15.1483 199.602 15.2895 199.575 15.4318 199.576H26.5355C26.6856 199.57 26.8353 199.595 26.9752 199.65C27.1151 199.704 27.2422 199.787 27.3484 199.894C27.4546 200 27.5377 200.127 27.5922 200.267C27.6468 200.407 27.6718 200.556 27.6655 200.706V205.62C27.7336 207.952 27.1372 210.256 25.9459 212.262C24.7792 214.121 23.0885 215.593 21.0868 216.492C18.7845 217.523 16.2835 218.035 13.7613 217.991Z" fill="#1C1B1B"/>
<path d="M39.6486 217.539C39.521 217.542 39.3943 217.517 39.2773 217.466C39.1602 217.415 39.0556 217.339 38.9706 217.244C38.7983 217.07 38.7012 216.835 38.7003 216.591C38.6986 216.453 38.7134 216.317 38.7446 216.183L49.5043 187.117C49.5941 186.782 49.7824 186.483 50.0448 186.257C50.3631 185.999 50.766 185.87 51.1748 185.893H56.9625C57.3712 185.87 57.7742 185.999 58.0925 186.257C58.3579 186.489 58.5592 186.785 58.6772 187.117L69.3927 216.178C69.4536 216.305 69.4839 216.445 69.4811 216.586C69.4789 216.709 69.4522 216.83 69.4024 216.942C69.3526 217.054 69.2808 217.155 69.1913 217.239C69.0997 217.333 68.9904 217.407 68.8697 217.457C68.7491 217.508 68.6195 217.534 68.4887 217.534H63.7426C63.5712 217.547 63.3988 217.526 63.2359 217.471C63.073 217.416 62.9228 217.329 62.7944 217.215C62.6153 217.054 62.4758 216.854 62.3866 216.63L60.4213 211.565H47.6963L45.7949 216.63C45.6816 216.845 45.5376 217.042 45.3675 217.215C45.2349 217.333 45.0791 217.423 44.9099 217.478C44.7407 217.533 44.5618 217.552 44.3848 217.534L39.6486 217.539ZM49.411 205.747H58.7459L54.049 192.767L49.411 205.747Z" fill="#1C1B1B"/>
<path d="M93.2599 217.991C90.7734 218.069 88.2972 217.637 85.9835 216.723C84.242 216.036 82.7156 214.896 81.5617 213.422C80.6051 212.17 80.0532 210.657 79.9797 209.083C79.9772 208.958 79.9998 208.833 80.0462 208.717C80.0926 208.6 80.1619 208.494 80.2499 208.405C80.3385 208.316 80.4443 208.246 80.5609 208.2C80.6775 208.153 80.8024 208.131 80.9279 208.135H85.8116C86.1291 208.114 86.4451 208.193 86.7156 208.361C86.9405 208.527 87.1393 208.726 87.3052 208.951C87.5383 209.524 87.8841 210.046 88.3222 210.483C88.8597 211.012 89.5073 211.414 90.2187 211.663C91.1864 211.99 92.2044 212.143 93.2255 212.115C95.1908 212.115 96.6647 211.797 97.6473 211.161C98.0986 210.901 98.4728 210.525 98.7317 210.073C98.9907 209.621 99.1251 209.108 99.1213 208.587C99.1313 208.239 99.0658 207.894 98.9292 207.574C98.7927 207.254 98.5883 206.968 98.3303 206.735C97.595 206.14 96.7505 205.694 95.8442 205.423C94.3692 204.934 92.8685 204.528 91.3487 204.204C89.3592 203.783 87.4241 203.137 85.5807 202.279C84.1395 201.632 82.9051 200.6 82.0137 199.296C81.1861 197.868 80.7747 196.237 80.8259 194.587C80.8771 192.938 81.389 191.335 82.3036 189.961C83.3774 188.497 84.832 187.355 86.5092 186.66C90.2942 185.205 94.4591 185.07 98.3303 186.276C99.7446 186.74 101.062 187.46 102.217 188.399C103.177 189.177 103.982 190.128 104.59 191.204C105.102 192.085 105.396 193.076 105.449 194.093C105.455 194.349 105.367 194.599 105.204 194.796C105.116 194.895 105.008 194.973 104.886 195.024C104.765 195.075 104.633 195.098 104.501 195.091H99.4504C99.1696 195.096 98.8916 195.033 98.6398 194.909C98.3713 194.764 98.151 194.543 98.006 194.275C97.9053 193.839 97.7148 193.429 97.4466 193.072C97.1784 192.714 96.8384 192.416 96.4485 192.197C95.4077 191.588 94.2143 191.289 93.0093 191.337C91.7913 191.275 90.5796 191.549 89.5063 192.128C89.0886 192.382 88.7481 192.745 88.5213 193.177C88.2945 193.61 88.19 194.097 88.219 194.585C88.1988 195.259 88.442 195.914 88.897 196.412C89.5211 197.017 90.2784 197.466 91.1079 197.724C92.4719 198.2 93.8612 198.6 95.2694 198.923C97.475 199.336 99.6274 199.995 101.686 200.888C103.159 201.509 104.429 202.53 105.351 203.836C106.176 205.188 106.585 206.753 106.525 208.336C106.572 210.209 105.981 212.042 104.85 213.535C103.638 215.052 102.026 216.202 100.197 216.856C97.9752 217.661 95.6227 218.046 93.2599 217.991Z" fill="#1C1B1B"/>
<path d="M128.159 217.539C128.008 217.544 127.858 217.518 127.718 217.463C127.578 217.408 127.45 217.325 127.343 217.219C127.238 217.113 127.156 216.986 127.102 216.847C127.048 216.707 127.023 216.558 127.029 216.409V192.221H118.799C118.657 192.224 118.515 192.198 118.383 192.144C118.252 192.09 118.132 192.009 118.033 191.907C117.928 191.8 117.845 191.672 117.791 191.532C117.737 191.391 117.712 191.242 117.718 191.091V187.023C117.713 186.874 117.738 186.725 117.792 186.585C117.846 186.446 117.928 186.319 118.033 186.213C118.132 186.11 118.251 186.029 118.383 185.974C118.515 185.919 118.657 185.891 118.799 185.893H142.486C142.635 185.888 142.785 185.913 142.924 185.968C143.064 186.023 143.191 186.106 143.297 186.212C143.403 186.318 143.486 186.445 143.541 186.584C143.596 186.724 143.621 186.873 143.616 187.023V191.091C143.622 191.241 143.597 191.391 143.542 191.531C143.488 191.671 143.405 191.798 143.298 191.904C143.192 192.011 143.065 192.094 142.925 192.148C142.785 192.203 142.636 192.228 142.486 192.221H134.305V216.409C134.311 216.558 134.286 216.707 134.232 216.847C134.178 216.986 134.096 217.113 133.991 217.219C133.884 217.325 133.756 217.408 133.616 217.463C133.476 217.518 133.326 217.544 133.175 217.539H128.159Z" fill="#1C1B1B"/>
<path d="M158.085 217.539C157.941 217.541 157.799 217.514 157.666 217.459C157.534 217.404 157.414 217.323 157.314 217.22C157.208 217.114 157.126 216.987 157.072 216.847C157.018 216.708 156.993 216.559 156.999 216.409V187.024C156.993 186.874 157.018 186.725 157.073 186.586C157.127 186.446 157.209 186.32 157.314 186.213C157.414 186.11 157.534 186.028 157.666 185.974C157.799 185.919 157.941 185.891 158.085 185.894H170.107C173.874 185.894 176.843 186.76 179.015 188.493C181.187 190.225 182.276 192.72 182.282 195.975C182.354 197.934 181.8 199.865 180.7 201.488C179.633 202.976 178.156 204.123 176.45 204.79L182.872 216.09C182.952 216.242 182.997 216.41 183.004 216.581C182.996 216.83 182.893 217.066 182.717 217.242C182.541 217.418 182.305 217.521 182.056 217.529H176.996C176.773 217.547 176.549 217.518 176.338 217.444C176.127 217.369 175.934 217.251 175.772 217.097C175.539 216.864 175.342 216.597 175.188 216.306L169.655 205.964H164.187V216.409C164.193 216.559 164.167 216.708 164.112 216.848C164.057 216.988 163.974 217.114 163.868 217.22C163.762 217.327 163.636 217.41 163.496 217.464C163.356 217.519 163.207 217.545 163.057 217.539H158.085ZM164.187 200.225H169.999C171.637 200.225 172.849 199.849 173.635 199.095C174.047 198.683 174.367 198.187 174.574 197.642C174.78 197.096 174.869 196.513 174.834 195.931C174.865 195.344 174.777 194.757 174.575 194.205C174.373 193.652 174.062 193.147 173.66 192.718C172.874 191.938 171.653 191.547 169.999 191.544H164.187V200.225Z" fill="#1C1B1B"/>
<path d="M209.304 217.991C206.868 218.052 204.447 217.589 202.204 216.635C200.27 215.779 198.644 214.351 197.547 212.542C196.43 210.718 195.827 208.425 195.739 205.664C195.709 204.354 195.694 203.065 195.694 201.797C195.694 200.52 195.694 199.213 195.739 197.867C195.744 195.465 196.375 193.106 197.571 191.023C198.681 189.186 200.32 187.727 202.273 186.837C204.493 185.912 206.874 185.437 209.279 185.437C211.684 185.437 214.065 185.912 216.285 186.837C218.242 187.731 219.888 189.188 221.012 191.023C222.217 193.103 222.855 195.463 222.864 197.867C222.923 199.193 222.952 200.5 222.952 201.797C222.952 203.094 222.923 204.367 222.864 205.664C222.769 208.435 222.158 210.728 221.031 212.542C219.922 214.348 218.291 215.775 216.354 216.635C214.128 217.586 211.724 218.048 209.304 217.991ZM209.304 212.095C210.893 212.152 212.441 211.584 213.617 210.513C214.748 209.458 215.342 207.755 215.401 205.404C215.466 204.077 215.498 202.834 215.494 201.674C215.491 200.515 215.46 199.287 215.401 197.99C215.426 196.659 215.133 195.342 214.546 194.148C214.068 193.222 213.319 192.464 212.399 191.976C211.432 191.53 210.379 191.299 209.314 191.299C208.248 191.299 207.196 191.53 206.228 191.976C205.296 192.456 204.537 193.215 204.057 194.148C203.465 195.342 203.156 196.657 203.152 197.99C203.123 199.3 203.108 200.528 203.108 201.674C203.108 202.821 203.123 204.064 203.152 205.404C203.241 207.752 203.844 209.455 204.961 210.513C206.141 211.599 207.701 212.174 209.304 212.115V212.095Z" fill="#1C1B1B"/>
<path d="M238.636 217.539C238.494 217.541 238.352 217.514 238.22 217.459C238.088 217.404 237.969 217.322 237.87 217.22C237.765 217.113 237.683 216.986 237.629 216.847C237.574 216.708 237.55 216.558 237.556 216.409V187.024C237.55 186.874 237.575 186.725 237.629 186.586C237.683 186.446 237.765 186.319 237.87 186.213C237.969 186.11 238.088 186.029 238.22 185.974C238.352 185.919 238.494 185.892 238.636 185.894H252.108C254.218 185.822 256.32 186.192 258.279 186.979C259.765 187.593 261.012 188.672 261.831 190.055C262.607 191.481 262.995 193.085 262.956 194.708C262.981 195.724 262.772 196.732 262.347 197.656C261.989 198.435 261.49 199.142 260.873 199.739C260.367 200.221 259.797 200.631 259.178 200.957C260.433 201.568 261.507 202.496 262.293 203.65C263.214 204.948 263.69 206.51 263.649 208.101C263.69 209.842 263.246 211.56 262.367 213.063C261.468 214.516 260.154 215.664 258.594 216.36C256.687 217.197 254.617 217.6 252.536 217.539H238.636ZM244.743 198.687H251.248C252.667 198.687 253.73 198.334 254.437 197.626C254.791 197.266 255.068 196.838 255.25 196.367C255.433 195.897 255.517 195.394 255.498 194.889C255.521 194.395 255.438 193.901 255.255 193.441C255.072 192.981 254.793 192.565 254.437 192.222C253.73 191.567 252.667 191.239 251.248 191.239H244.743V198.687ZM244.743 212.203H251.656C253.133 212.203 254.249 211.789 255.002 210.96C255.739 210.171 256.144 209.127 256.132 208.047C256.145 207.504 256.05 206.964 255.853 206.458C255.656 205.952 255.36 205.49 254.982 205.099C254.211 204.298 253.106 203.9 251.656 203.9H244.743V212.203Z" fill="#1C1B1B"/>
<path d="M275.705 217.539C275.578 217.542 275.451 217.517 275.334 217.466C275.217 217.415 275.112 217.339 275.027 217.244C274.855 217.07 274.758 216.835 274.757 216.591C274.755 216.453 274.77 216.317 274.801 216.183L285.561 187.117C285.651 186.782 285.839 186.483 286.101 186.257C286.42 186 286.823 185.87 287.231 185.893H293.019C293.428 185.87 293.831 185.999 294.149 186.257C294.414 186.49 294.617 186.785 294.739 187.117L305.449 216.178C305.512 216.305 305.544 216.444 305.543 216.586C305.54 216.709 305.512 216.83 305.461 216.942C305.411 217.054 305.338 217.155 305.248 217.239C305.156 217.333 305.047 217.407 304.926 217.457C304.806 217.508 304.676 217.534 304.545 217.534H299.799C299.628 217.547 299.456 217.525 299.293 217.47C299.13 217.415 298.98 217.328 298.851 217.215C298.672 217.054 298.532 216.854 298.443 216.63L296.478 211.565H283.753L281.856 216.63C281.74 216.844 281.594 217.04 281.424 217.215C281.292 217.333 281.136 217.423 280.967 217.478C280.797 217.533 280.618 217.552 280.441 217.534L275.705 217.539ZM285.468 205.747H294.803L290.145 192.777L285.468 205.747Z" fill="#1C1B1B"/>
<path d="M319.507 217.539C319.364 217.541 319.222 217.514 319.091 217.459C318.959 217.404 318.84 217.323 318.74 217.22C318.635 217.113 318.553 216.987 318.499 216.847C318.445 216.708 318.42 216.559 318.426 216.409V187.024C318.42 186.874 318.445 186.725 318.499 186.586C318.553 186.446 318.635 186.32 318.74 186.213C318.84 186.11 318.959 186.029 319.091 185.974C319.222 185.919 319.364 185.892 319.507 185.894H331.534C335.304 185.894 338.272 186.76 340.437 188.493C342.602 190.225 343.688 192.72 343.694 195.975C343.766 197.934 343.212 199.865 342.112 201.488C341.045 202.976 339.568 204.123 337.862 204.79L344.279 216.09C344.362 216.241 344.41 216.409 344.416 216.581C344.401 216.828 344.297 217.06 344.122 217.235C343.947 217.409 343.715 217.514 343.468 217.529H338.403C338.181 217.547 337.957 217.517 337.747 217.443C337.538 217.368 337.346 217.251 337.184 217.097C336.952 216.862 336.753 216.596 336.595 216.306L331.082 205.954H325.614V216.399C325.619 216.549 325.594 216.699 325.539 216.838C325.484 216.978 325.401 217.105 325.295 217.211C325.189 217.317 325.062 217.4 324.923 217.455C324.783 217.509 324.634 217.535 324.484 217.529L319.507 217.539ZM325.614 200.225H331.441C333.079 200.225 334.292 199.849 335.081 199.095C335.494 198.682 335.813 198.187 336.02 197.642C336.227 197.096 336.315 196.513 336.28 195.931C336.311 195.344 336.223 194.757 336.022 194.205C335.82 193.652 335.508 193.147 335.106 192.718C334.32 191.937 333.101 191.544 331.441 191.544H325.614V200.225Z" fill="#1C1B1B"/>
</svg>
