<svg width="116" height="74" viewBox="0 0 116 74" fill="none" xmlns="http://www.w3.org/2000/svg">
<path fill-rule="evenodd" clip-rule="evenodd" d="M80.2356 50.5792C80.2356 51.3722 79.8391 51.7687 79.0461 51.7687H72.5458C67.7845 51.7687 63.7713 50.1361 60.5061 46.8708C57.2408 43.6056 55.6088 39.5929 55.6099 34.8327V1.78178C55.6099 0.988786 56.0069 0.592285 56.801 0.592285H65.955C66.7497 0.603802 67.1462 0.97727 67.1462 1.78178V34.8327C67.1346 35.5452 67.2664 36.2528 67.5338 36.9133C67.8011 37.5738 68.1985 38.1739 68.7024 38.6778C69.2063 39.1816 69.8063 39.5791 70.4669 39.8464C71.1274 40.1137 71.835 40.2456 72.5475 40.234H79.0477C79.8407 40.234 80.2372 40.6305 80.2372 41.4235V50.5792H80.2356Z" fill="#FAF6F0"/>
<path fill-rule="evenodd" clip-rule="evenodd" d="M40.8312 51.7685C40.0382 51.7685 39.6417 51.372 39.6417 50.579V17.4458C39.6501 16.7404 39.5167 16.0404 39.2494 15.3876C38.982 14.7347 38.5861 14.1422 38.0853 13.6453C37.6056 13.1317 37.0238 12.7239 36.3773 12.4483C35.7307 12.1726 35.0337 12.0351 34.3309 12.0445H31.4929V50.579C31.4929 51.372 31.0964 51.7685 30.3034 51.7685H21.1477C20.3547 51.7685 19.9582 51.372 19.9582 50.579V12.0363H16.9359C16.2227 12.0245 15.5143 12.1564 14.8532 12.4242C14.192 12.6919 13.5914 13.0901 13.0874 13.5949C12.5834 14.0997 12.1861 14.7008 11.9194 15.3624C11.6526 16.024 11.5218 16.7326 11.5347 17.4458V50.579C11.5347 51.372 11.1382 51.7685 10.3452 51.7685H1.1895C0.396499 51.7685 0 51.372 0 50.579V17.4458C0 12.746 1.64523 8.74806 4.93568 5.45213C8.22613 2.15619 12.2262 0.505484 16.9359 0.5H34.3309C39.0308 0.5 43.0133 2.14797 46.2785 5.4439C49.5438 8.73983 51.1764 12.7405 51.1764 17.4458V50.579C51.1764 51.372 50.7799 51.7685 49.9869 51.7685H40.8312Z" fill="#FAF6F0"/>
<path fill-rule="evenodd" clip-rule="evenodd" d="M105.021 18.719C103.082 18.719 104.472 15.8777 102.275 13.6829C101.789 13.1812 101.205 12.7842 100.56 12.5166C99.9146 12.2489 99.2213 12.1162 98.5227 12.1265C96.9959 12.1265 95.7143 12.63 94.6778 13.6369C93.6413 14.6437 93.1225 15.9133 93.1214 17.4456V34.8323C93.1103 35.5448 93.2425 36.2523 93.5101 36.9127C93.7777 37.5732 94.1753 38.1731 94.6792 38.6769C95.1832 39.1807 95.7832 39.5781 96.4438 39.8455C97.1043 40.1129 97.8118 40.2449 98.5243 40.2336C100.049 40.2336 101.315 39.7148 102.323 38.6772C103.331 37.6396 103.835 36.358 103.833 34.8323C103.833 34.0645 104.2 33.668 104.932 33.6428H114.18C114.973 33.6428 115.37 34.0398 115.371 34.8339C115.371 39.5327 113.738 43.5301 110.472 46.826C107.206 50.1219 103.224 51.7672 98.526 51.7617C93.7647 51.7617 89.7514 50.1291 86.4862 46.8638C83.221 43.5986 81.5884 39.5859 81.5884 34.8257V17.4456C81.5884 12.7457 83.2336 8.76316 86.5241 5.49794C89.8145 2.23271 93.8124 0.600098 98.5177 0.600098C103.217 0.600098 107.198 2.23271 110.464 5.49794C113.729 8.76316 115.364 12.7457 115.368 17.4456C115.368 18.3 114.971 18.7272 114.177 18.7272L105.021 18.719Z" fill="#FAF6F0"/>
<path d="M4.60804 73.4969C3.77271 73.5197 2.94274 73.3568 2.17804 73.0198C1.52984 72.7234 0.986639 72.2376 0.620016 71.6263C0.233676 70.9512 0.0274509 70.188 0.0211541 69.4102C0.0112827 68.9715 0.00634766 68.507 0.00634766 68.0167C0.00634766 67.5231 0.00634705 67.0526 0.0211541 66.6084C0.027823 65.8472 0.234336 65.1012 0.620016 64.4449C0.995848 63.8414 1.5436 63.3641 2.19285 63.0744C2.95324 62.7404 3.77775 62.5775 4.60804 62.5973C5.27742 62.5852 5.94427 62.6825 6.58231 62.8852C7.09844 63.0517 7.58247 63.3049 8.01366 63.6338C8.37085 63.9069 8.66913 64.2494 8.89056 64.6407C9.07639 64.9644 9.18295 65.3274 9.20151 65.7002C9.20255 65.7422 9.19507 65.784 9.17951 65.823C9.16396 65.862 9.14066 65.8975 9.11102 65.9273C9.07884 65.9584 9.04065 65.9826 8.99878 65.9984C8.95691 66.0143 8.91225 66.0214 8.86753 66.0194H6.97881C6.89649 66.024 6.8148 66.0027 6.74519 65.9585C6.68365 65.9099 6.63458 65.8473 6.60206 65.7759C6.51518 65.5786 6.39989 65.3952 6.25985 65.2313C6.08825 65.0284 5.87429 64.8656 5.63302 64.7542C5.30926 64.6171 4.95942 64.5525 4.60804 64.565C3.97299 64.565 3.47064 64.7295 3.10102 65.0586C2.73249 65.3876 2.53342 65.9322 2.5038 66.6775C2.47419 67.5462 2.47419 68.4296 2.5038 69.3279C2.53342 70.1045 2.74016 70.6644 3.12405 71.0077C3.54565 71.364 4.08625 71.5479 4.63766 71.5227C5.02034 71.5287 5.39995 71.4536 5.75147 71.3022C6.07434 71.16 6.34591 70.9223 6.52966 70.6211C6.7334 70.2601 6.83146 69.849 6.81264 69.4349V69.0565H5.16742C5.11901 69.057 5.07106 69.0471 5.02679 69.0275C4.98252 69.0079 4.94296 68.9791 4.91076 68.943C4.84218 68.872 4.80435 68.7768 4.80547 68.6781V67.709C4.80353 67.6587 4.81187 67.6086 4.82998 67.5616C4.84808 67.5147 4.87557 67.4719 4.91076 67.4359C4.9443 67.4021 4.9843 67.3753 5.02839 67.3572C5.07249 67.3391 5.11976 67.3301 5.16742 67.3306H8.88563C8.93588 67.3285 8.98602 67.3369 9.03287 67.3552C9.07973 67.3735 9.12229 67.4013 9.15785 67.4368C9.19342 67.4724 9.22122 67.5149 9.23949 67.5618C9.25777 67.6086 9.26612 67.6588 9.26403 67.709V69.3543C9.28683 70.1353 9.08712 70.9067 8.6882 71.5786C8.29751 72.201 7.73136 72.6939 7.06107 72.9951C6.2901 73.3403 5.45263 73.5116 4.60804 73.4969Z" fill="#FAF6F0"/>
<path d="M13.277 73.3459C13.2343 73.3468 13.1919 73.3384 13.1527 73.3214C13.1135 73.3043 13.0785 73.279 13.05 73.2471C12.9923 73.1889 12.9598 73.1103 12.9595 73.0283C12.9589 72.9824 12.9639 72.9365 12.9743 72.8918L16.5774 63.1586C16.6074 63.0467 16.6705 62.9463 16.7583 62.8707C16.8649 62.7845 16.9999 62.7411 17.1367 62.749H19.0748C19.2117 62.7411 19.3466 62.7845 19.4532 62.8707C19.5421 62.9483 19.6095 63.0474 19.649 63.1586L23.2372 72.8901C23.2576 72.9327 23.2678 72.9795 23.2669 73.0267C23.2661 73.0678 23.2571 73.1083 23.2405 73.1459C23.2238 73.1835 23.1998 73.2174 23.1698 73.2455C23.1391 73.2768 23.1025 73.3016 23.0621 73.3186C23.0217 73.3355 22.9783 73.3443 22.9345 73.3442H21.3452C21.2878 73.3487 21.2301 73.3415 21.1756 73.3231C21.121 73.3048 21.0707 73.2755 21.0277 73.2373C20.9677 73.1834 20.921 73.1164 20.8911 73.0415L20.2331 71.3453H15.9719L15.3352 73.0415C15.2973 73.1134 15.2491 73.1793 15.1921 73.2373C15.1477 73.277 15.0955 73.3071 15.0389 73.3255C14.9822 73.3439 14.9223 73.3503 14.863 73.3442L13.277 73.3459ZM16.5461 69.3973H19.672L18.0992 65.0506L16.5461 69.3973Z" fill="#FAF6F0"/>
<path d="M31.2293 73.497C30.3967 73.5231 29.5675 73.3787 28.7928 73.0725C28.2096 72.8424 27.6984 72.4607 27.3121 71.967C26.9917 71.5479 26.8069 71.0411 26.7823 70.5142C26.7814 70.4722 26.789 70.4305 26.8046 70.3915C26.8201 70.3525 26.8433 70.3171 26.8728 70.2872C26.9024 70.2574 26.9379 70.234 26.9769 70.2184C27.016 70.2029 27.0578 70.1955 27.0998 70.1967H28.7352C28.8415 70.1898 28.9473 70.2162 29.0379 70.2724C29.1132 70.3279 29.1798 70.3945 29.2353 70.4698C29.3134 70.6619 29.4292 70.8365 29.5759 70.9831C29.7559 71.1599 29.9727 71.2948 30.2109 71.378C30.535 71.4875 30.8759 71.5387 31.2178 71.5293C31.8759 71.5293 32.3695 71.4229 32.6985 71.2101C32.8496 71.1229 32.9749 70.9972 33.0617 70.8457C33.1484 70.6943 33.1934 70.5225 33.1921 70.348C33.1955 70.2317 33.1735 70.1159 33.1278 70.0088C33.082 69.9017 33.0136 69.8059 32.9272 69.7278C32.681 69.5285 32.3982 69.3793 32.0947 69.2885C31.6008 69.1249 31.0983 68.9887 30.5893 68.8805C29.9232 68.7394 29.2752 68.5231 28.6578 68.2356C28.1753 68.0191 27.7619 67.6735 27.4634 67.2369C27.1863 66.7587 27.0485 66.2125 27.0657 65.6601C27.0828 65.1077 27.2542 64.5711 27.5605 64.111C27.9201 63.6207 28.4071 63.2383 28.9688 63.0054C30.2362 62.5184 31.6309 62.4732 32.9272 62.8771C33.4008 63.0324 33.8419 63.2733 34.2286 63.5878C34.5502 63.8482 34.8198 64.1669 35.0232 64.5272C35.1946 64.8223 35.2933 65.1539 35.3111 65.4946C35.3129 65.5804 35.2837 65.6639 35.2289 65.7299C35.1996 65.763 35.1633 65.7891 35.1226 65.8062C35.0818 65.8233 35.0377 65.831 34.9936 65.8286H33.3023C33.2083 65.8303 33.1152 65.8094 33.0309 65.7677C32.941 65.7192 32.8672 65.6454 32.8186 65.5555C32.7849 65.4096 32.7211 65.2723 32.6313 65.1525C32.5415 65.0327 32.4277 64.9329 32.2971 64.8596C31.9485 64.6557 31.5489 64.5558 31.1454 64.5717C30.7375 64.551 30.3318 64.6426 29.9724 64.8365C29.8325 64.9215 29.7185 65.043 29.6425 65.188C29.5666 65.3329 29.5316 65.4958 29.5413 65.6592C29.5346 65.8849 29.616 66.1045 29.7684 66.2712C29.9774 66.4736 30.2309 66.624 30.5087 66.7105C30.9655 66.8699 31.4307 67.0039 31.9022 67.1119C32.6408 67.2501 33.3616 67.4709 34.0509 67.77C34.5442 67.9779 34.9694 68.3198 35.2782 68.7571C35.5546 69.2099 35.6914 69.7341 35.6714 70.2641C35.687 70.8912 35.4892 71.5049 35.1104 72.0048C34.7044 72.513 34.1649 72.8981 33.5524 73.117C32.8083 73.3866 32.0206 73.5155 31.2293 73.497Z" fill="#FAF6F0"/>
<path d="M42.9153 73.3457C42.8649 73.3474 42.8147 73.3388 42.7678 73.3204C42.7208 73.302 42.6781 73.2742 42.6422 73.2387C42.607 73.2031 42.5795 73.1607 42.5614 73.114C42.5433 73.0673 42.5349 73.0173 42.5369 72.9673V64.8678H39.7812C39.7335 64.8688 39.6861 64.8599 39.6419 64.8418C39.5978 64.8237 39.5578 64.7967 39.5245 64.7625C39.4893 64.7266 39.4617 64.6839 39.4436 64.6369C39.4255 64.5899 39.4172 64.5397 39.4192 64.4894V63.1272C39.4173 63.0771 39.4257 63.0272 39.4438 62.9806C39.4619 62.9339 39.4894 62.8914 39.5245 62.8557C39.5578 62.8213 39.5977 62.7941 39.6418 62.7757C39.6859 62.7573 39.7334 62.7482 39.7812 62.7488H47.7128C47.763 62.7469 47.813 62.7555 47.8598 62.7738C47.9065 62.7922 47.949 62.82 47.9845 62.8555C48.02 62.891 48.0478 62.9335 48.0662 62.9802C48.0845 63.027 48.0931 63.077 48.0912 63.1272V64.4894C48.0933 64.5397 48.085 64.5898 48.0667 64.6367C48.0484 64.6835 48.0206 64.7261 47.9851 64.7617C47.9495 64.7972 47.9069 64.825 47.8601 64.8433C47.8132 64.8616 47.7631 64.8699 47.7128 64.8678H44.9735V72.9673C44.9755 73.0173 44.9672 73.0673 44.9491 73.114C44.931 73.1607 44.9035 73.2031 44.8682 73.2387C44.8324 73.2742 44.7897 73.302 44.7427 73.3204C44.6958 73.3388 44.6455 73.3474 44.5951 73.3457H42.9153Z" fill="#FAF6F0"/>
<path d="M52.9366 73.3455C52.8886 73.3462 52.8408 73.3371 52.7964 73.3187C52.752 73.3003 52.7118 73.2731 52.6783 73.2385C52.6431 73.2029 52.6156 73.1604 52.5975 73.1137C52.5794 73.067 52.571 73.0171 52.573 72.9671V63.127C52.5711 63.0769 52.5795 63.027 52.5976 62.9804C52.6157 62.9337 52.6432 62.8912 52.6783 62.8555C52.7118 62.821 52.752 62.7937 52.7964 62.7753C52.8408 62.7569 52.8886 62.7478 52.9366 62.7486H56.9625C58.2238 62.7486 59.2181 63.0387 59.9453 63.6189C60.6725 64.1991 61.0372 65.0343 61.0394 66.1246C61.0635 66.7806 60.8779 67.4272 60.5096 67.9705C60.1521 68.4689 59.6578 68.8529 59.0865 69.0761L61.2368 72.8601C61.2636 72.911 61.2788 72.9672 61.2812 73.0247C61.2784 73.108 61.244 73.1871 61.185 73.246C61.1261 73.3049 61.047 73.3393 60.9637 73.3422H59.2691C59.1945 73.3482 59.1194 73.3384 59.0489 73.3134C58.9783 73.2885 58.9137 73.249 58.8595 73.1974C58.7815 73.1193 58.7155 73.03 58.6637 72.9325L56.8111 69.4693H54.98V72.9671C54.9819 73.0173 54.9733 73.0673 54.955 73.114C54.9366 73.1608 54.9088 73.2032 54.8733 73.2387C54.8378 73.2743 54.7953 73.3021 54.7486 73.3204C54.7018 73.3388 54.6518 73.3473 54.6016 73.3455H52.9366ZM54.98 67.5477H56.9263C57.4747 67.5477 57.8805 67.4216 58.1438 67.1693C58.2818 67.0311 58.3889 66.8652 58.4581 66.6826C58.5273 66.4999 58.557 66.3047 58.5452 66.1098C58.5556 65.9132 58.5262 65.7165 58.4586 65.5316C58.391 65.3467 58.2867 65.1773 58.152 65.0338C57.8888 64.7728 57.4802 64.6417 56.9263 64.6406H54.98V67.5477Z" fill="#FAF6F0"/>
<path d="M70.088 73.497C69.2722 73.5173 68.4616 73.3625 67.7107 73.0429C67.0629 72.7562 66.5186 72.2779 66.151 71.6724C65.777 71.0615 65.5752 70.2937 65.5456 69.3691C65.5357 68.9304 65.5308 68.4988 65.5308 68.0743C65.5308 67.6465 65.5308 67.2089 65.5456 66.7581C65.5473 65.9538 65.7588 65.1639 66.1592 64.4663C66.5309 63.8512 67.0797 63.3626 67.7337 63.0646C68.4772 62.7551 69.2745 62.5957 70.0798 62.5957C70.8851 62.5957 71.6825 62.7551 72.4259 63.0646C73.0812 63.3639 73.6323 63.852 74.0086 64.4663C74.4121 65.1629 74.6259 65.9531 74.6289 66.7581C74.6486 67.2023 74.6585 67.64 74.6585 68.0743C74.6585 68.5086 74.6486 68.9348 74.6289 69.3691C74.597 70.297 74.3925 71.0648 74.0152 71.6724C73.6438 72.2772 73.0976 72.755 72.4489 73.0429C71.7035 73.3613 70.8984 73.5161 70.088 73.497ZM70.088 71.5227C70.6203 71.5416 71.1387 71.3514 71.5325 70.9929C71.911 70.6398 72.11 70.0694 72.1298 69.2819C72.1517 68.8377 72.1621 68.4214 72.161 68.0332C72.1599 67.6449 72.1495 67.2336 72.1298 66.7993C72.1382 66.3537 72.04 65.9126 71.8435 65.5127C71.6835 65.2027 71.4326 64.949 71.1245 64.7855C70.8006 64.6361 70.4481 64.5588 70.0913 64.5588C69.7346 64.5588 69.3821 64.6361 69.0581 64.7855C68.7459 64.9463 68.4917 65.2005 68.3309 65.5127C68.1328 65.9127 68.0292 66.3529 68.0282 66.7993C68.0183 67.238 68.0134 67.6493 68.0134 68.0332C68.0134 68.4171 68.0183 68.8333 68.0282 69.2819C68.0578 70.0683 68.2596 70.6387 68.6337 70.9929C69.0288 71.3564 69.5515 71.5492 70.088 71.5293V71.5227Z" fill="#FAF6F0"/>
<path d="M79.9106 73.3459C79.8628 73.3465 79.8153 73.3374 79.7712 73.319C79.7271 73.3006 79.6871 73.2734 79.6539 73.239C79.6187 73.2034 79.5912 73.1609 79.5731 73.1142C79.5549 73.0675 79.5466 73.0176 79.5486 72.9675V63.1274C79.5467 63.0774 79.5551 63.0275 79.5732 62.9808C79.5913 62.9341 79.6188 62.8916 79.6539 62.856C79.6871 62.8216 79.7271 62.7943 79.7712 62.776C79.8153 62.7576 79.8628 62.7484 79.9106 62.749H84.4218C85.1284 62.725 85.8322 62.8489 86.4882 63.1126C86.9858 63.318 87.4032 63.6794 87.6777 64.1425C87.9376 64.6199 88.0675 65.1572 88.0544 65.7006C88.0626 66.0408 87.9928 66.3785 87.8504 66.6877C87.7306 66.9488 87.5632 67.1854 87.3569 67.3853C87.1873 67.5467 86.9963 67.684 86.7893 67.7933C87.2095 67.9978 87.5691 68.3086 87.8323 68.6949C88.1407 69.1296 88.3 69.6526 88.2864 70.1854C88.3001 70.7684 88.1514 71.3437 87.857 71.8471C87.5561 72.3335 87.1159 72.7181 86.5935 72.9511C85.9549 73.2314 85.262 73.3663 84.5649 73.3459H79.9106ZM81.9556 67.0332H84.1339C84.6088 67.0332 84.9647 66.9147 85.2016 66.6778C85.3202 66.5573 85.4128 66.4139 85.4739 66.2563C85.5351 66.0987 85.5633 65.9303 85.557 65.7614C85.5647 65.5958 85.5369 65.4305 85.4756 65.2764C85.4144 65.1224 85.3209 64.9832 85.2016 64.8681C84.9647 64.6487 84.6088 64.539 84.1339 64.539H81.9556V67.0332ZM81.9556 71.5592H84.2704C84.7651 71.5592 85.1386 71.4205 85.3908 71.143C85.6377 70.8785 85.7732 70.5291 85.7692 70.1673C85.7736 69.9855 85.7418 69.8046 85.6757 69.6352C85.6096 69.4657 85.5106 69.3111 85.3842 69.1802C85.1259 68.912 84.7558 68.7788 84.2704 68.7788H81.9556V71.5592Z" fill="#FAF6F0"/>
<path d="M92.3234 73.3459C92.2807 73.3468 92.2383 73.3384 92.1991 73.3214C92.1599 73.3043 92.1249 73.279 92.0964 73.2471C92.0387 73.1889 92.0062 73.1103 92.0059 73.0283C92.0053 72.9824 92.0103 72.9365 92.0207 72.8918L95.6238 63.1586C95.6538 63.0467 95.7169 62.9463 95.8047 62.8707C95.9114 62.7846 96.0463 62.7412 96.1831 62.749H98.1212C98.2581 62.7411 98.393 62.7845 98.4996 62.8707C98.5884 62.9487 98.6563 63.0477 98.697 63.1586L102.284 72.8901C102.305 72.9326 102.315 72.9794 102.315 73.0267C102.314 73.0679 102.305 73.1085 102.288 73.1461C102.271 73.1836 102.246 73.2174 102.216 73.2455C102.186 73.2768 102.149 73.3016 102.109 73.3186C102.068 73.3355 102.025 73.3443 101.981 73.3442H100.392C100.334 73.3485 100.277 73.3412 100.222 73.3229C100.168 73.3045 100.117 73.2754 100.074 73.2373C100.014 73.1834 99.9674 73.1164 99.9375 73.0415L99.2795 71.3453H95.0183L94.3833 73.0415C94.3441 73.113 94.2954 73.1789 94.2385 73.2373C94.1941 73.277 94.1419 73.3071 94.0853 73.3255C94.0286 73.3439 93.9687 73.3503 93.9094 73.3442L92.3234 73.3459ZM95.5925 69.3973H98.7184L97.1588 65.0539L95.5925 69.3973Z" fill="#FAF6F0"/>
<path d="M106.991 73.3455C106.943 73.3461 106.895 73.3369 106.851 73.3185C106.807 73.3001 106.767 73.2729 106.734 73.2385C106.699 73.2029 106.671 73.1604 106.653 73.1137C106.635 73.067 106.627 73.0171 106.629 72.9671V63.127C106.627 63.0769 106.635 63.027 106.653 62.9803C106.671 62.9337 106.699 62.8912 106.734 62.8555C106.767 62.8211 106.807 62.7939 106.851 62.7755C106.895 62.7571 106.943 62.7479 106.991 62.7486H111.018C112.281 62.7486 113.274 63.0387 113.999 63.6189C114.724 64.1991 115.088 65.0343 115.09 66.1246C115.114 66.7806 114.929 67.4271 114.56 67.9705C114.203 68.4689 113.709 68.8529 113.137 69.0761L115.286 72.8601C115.314 72.9106 115.33 72.967 115.332 73.0246C115.327 73.1072 115.292 73.1851 115.233 73.2435C115.175 73.302 115.097 73.3371 115.014 73.3422H113.318C113.244 73.348 113.169 73.3382 113.099 73.3132C113.028 73.2883 112.964 73.2488 112.91 73.1974C112.832 73.1188 112.766 73.0296 112.713 72.9325L110.867 69.466H109.036V72.9638C109.038 73.014 109.029 73.064 109.011 73.1107C108.992 73.1575 108.964 73.1999 108.929 73.2354C108.893 73.271 108.851 73.2988 108.804 73.3171C108.757 73.3355 108.707 73.344 108.657 73.3422L106.991 73.3455ZM109.036 67.5477H110.987C111.535 67.5477 111.942 67.4216 112.206 67.1693C112.344 67.0311 112.451 66.8652 112.52 66.6826C112.59 66.4999 112.619 66.3047 112.607 66.1098C112.618 65.9132 112.588 65.7165 112.521 65.5316C112.453 65.3467 112.349 65.1773 112.214 65.0338C111.951 64.7722 111.543 64.6406 110.987 64.6406H109.036V67.5477Z" fill="#FAF6F0"/>
</svg>
