<svg width="25" height="25" viewBox="0 0 25 25" fill="none" xmlns="http://www.w3.org/2000/svg">
<path d="M19.5 4.4165H5.5C4.94772 4.4165 4.5 4.86422 4.5 5.4165V19.4165C4.5 19.9688 4.94772 20.4165 5.5 20.4165H19.5C20.0523 20.4165 20.5 19.9688 20.5 19.4165V5.4165C20.5 4.86422 20.0523 4.4165 19.5 4.4165Z" stroke="#1C1B1B" stroke-width="2" stroke-linecap="round" stroke-linejoin="round"/>
<path d="M16.5 16.4165H16.502V16.4185H16.5V16.4165Z" stroke="#1C1B1B" stroke-width="2" stroke-linecap="round" stroke-linejoin="round"/>
<path d="M12.5 16.4165H12.502V16.4185H12.5V16.4165Z" stroke="#1C1B1B" stroke-width="2" stroke-linecap="round" stroke-linejoin="round"/>
<path d="M8.5 16.4165H8.502V16.4185H8.5V16.4165Z" stroke="#1C1B1B" stroke-width="2" stroke-linecap="round" stroke-linejoin="round"/>
<path d="M16.5 12.4165H16.502V12.4185H16.5V12.4165Z" stroke="#1C1B1B" stroke-width="2" stroke-linecap="round" stroke-linejoin="round"/>
<path d="M12.5 12.4165H12.502V12.4185H12.5V12.4165Z" stroke="#1C1B1B" stroke-width="2" stroke-linecap="round" stroke-linejoin="round"/>
<path d="M8.5 12.4165H8.502V12.4185H8.5V12.4165Z" stroke="#1C1B1B" stroke-width="2" stroke-linecap="round" stroke-linejoin="round"/>
<path d="M4.5 8.4165H20.5" stroke="#1C1B1B" stroke-width="2" stroke-linecap="round" stroke-linejoin="round"/>
<path d="M16.5 2.4165V4.4165" stroke="#1C1B1B" stroke-width="2" stroke-linecap="round" stroke-linejoin="round"/>
<path d="M8.5 2.4165V4.4165" stroke="#1C1B1B" stroke-width="2" stroke-linecap="round" stroke-linejoin="round"/>
</svg>
