<svg width="18" height="19" viewBox="0 0 18 19" fill="none" xmlns="http://www.w3.org/2000/svg">
<path d="M9.00402 5.2394C6.44951 5.2394 4.38904 7.29987 4.38904 9.85437C4.38904 12.4089 6.44951 14.4693 9.00402 14.4693C11.5585 14.4693 13.619 12.4089 13.619 9.85437C13.619 7.29987 11.5585 5.2394 9.00402 5.2394ZM9.00402 12.8547C7.35323 12.8547 6.00368 11.5092 6.00368 9.85437C6.00368 8.19957 7.34921 6.85404 9.00402 6.85404C10.6588 6.85404 12.0044 8.19957 12.0044 9.85437C12.0044 11.5092 10.6548 12.8547 9.00402 12.8547ZM14.8842 5.05062C14.8842 5.64908 14.4022 6.12705 13.8078 6.12705C13.2093 6.12705 12.7313 5.64506 12.7313 5.05062C12.7313 4.45618 13.2133 3.9742 13.8078 3.9742C14.4022 3.9742 14.8842 4.45618 14.8842 5.05062ZM17.9408 6.14311C17.8725 4.70118 17.5431 3.42393 16.4868 2.37161C15.4345 1.31928 14.1572 0.989927 12.7153 0.91763C11.2292 0.833283 6.77485 0.833283 5.28874 0.91763C3.85083 0.985911 2.57358 1.31526 1.51724 2.36759C0.460895 3.41992 0.135557 4.69717 0.0632601 6.1391C-0.0210867 7.62521 -0.0210867 12.0795 0.0632601 13.5656C0.131541 15.0076 0.460895 16.2848 1.51724 17.3371C2.57358 18.3895 3.84681 18.7188 5.28874 18.7911C6.77485 18.8755 11.2292 18.8755 12.7153 18.7911C14.1572 18.7228 15.4345 18.3935 16.4868 17.3371C17.5391 16.2848 17.8685 15.0076 17.9408 13.5656C18.0251 12.0795 18.0251 7.62922 17.9408 6.14311ZM16.0209 15.1602C15.7076 15.9474 15.1011 16.5539 14.3098 16.8712C13.125 17.3411 10.3134 17.2327 9.00402 17.2327C7.69463 17.2327 4.87906 17.3371 3.6982 16.8712C2.91097 16.5579 2.30447 15.9514 1.98717 15.1602C1.51724 13.9753 1.62568 11.1638 1.62568 9.85437C1.62568 8.54499 1.52125 5.72941 1.98717 4.54856C2.30046 3.76132 2.90695 3.15483 3.6982 2.83752C4.88307 2.36759 7.69463 2.47604 9.00402 2.47604C10.3134 2.47604 13.129 2.37161 14.3098 2.83752C15.0971 3.15081 15.7036 3.7573 16.0209 4.54856C16.4908 5.73343 16.3823 8.54499 16.3823 9.85437C16.3823 11.1638 16.4908 13.9793 16.0209 15.1602Z" fill="#1C1B1B"/>
</svg>
