<svg width="25" height="25" viewBox="0 0 25 25" fill="none" xmlns="http://www.w3.org/2000/svg">
<path d="M8.14593 3.4165H5.39474C4.3483 3.4165 3.5 4.26481 3.5 5.31124C3.5 14.2059 10.7106 21.4165 19.6053 21.4165C20.6517 21.4165 21.5 20.5682 21.5 19.5218V16.7706C21.5 15.9528 21.0021 15.2173 20.2428 14.9136L17.6071 13.8594C16.9251 13.5865 16.1483 13.7096 15.584 14.1799L14.9031 14.7473C14.1084 15.4095 12.94 15.3565 12.2085 14.625L10.2915 12.708C9.56004 11.9765 9.50704 10.8081 10.1693 10.0134L10.7366 9.33253C11.2069 8.76819 11.33 7.99145 11.0572 7.30938L10.0029 4.67372C9.69916 3.91441 8.96374 3.4165 8.14593 3.4165Z" stroke="#1C1B1B" stroke-width="2" stroke-linecap="round" stroke-linejoin="round"/>
</svg>
