<svg width="24" height="25" viewBox="0 0 24 25" fill="none" xmlns="http://www.w3.org/2000/svg">
<path d="M12 11.4165C13.1046 11.4165 14 10.5211 14 9.4165C14 8.31193 13.1046 7.4165 12 7.4165C10.8954 7.4165 10 8.31193 10 9.4165C10 10.5211 10.8954 11.4165 12 11.4165Z" stroke="#1C1B1B" stroke-width="2" stroke-linecap="round" stroke-linejoin="round"/>
<path d="M12 21.4165C12 21.4165 19 16.5704 19 10.3396C19 8.50347 18.2625 6.74256 16.9497 5.44423C15.637 4.1459 13.8565 3.4165 12 3.4165C10.1435 3.4165 8.36301 4.1459 7.05025 5.44423C5.7375 6.74256 5 8.50347 5 10.3396C5 16.5704 12 21.4165 12 21.4165Z" stroke="#1C1B1B" stroke-width="2" stroke-linecap="round" stroke-linejoin="round"/>
</svg>
