<svg width="136" height="25" viewBox="0 0 136 25" fill="none" xmlns="http://www.w3.org/2000/svg">
<path d="M14.986 8.89084L12.4538 3.40093C12.2751 3.01349 11.7244 3.01349 11.5457 3.40093L9.01347 8.89084C8.94064 9.04874 8.791 9.15747 8.61831 9.17794L2.61459 9.88978C2.19089 9.94001 2.02073 10.4637 2.33398 10.7534L6.77269 14.8582C6.90036 14.9762 6.95752 15.1522 6.92363 15.3227L5.74537 21.2526C5.66222 21.6711 6.1077 21.9947 6.48001 21.7863L11.7555 18.8333C11.9073 18.7484 12.0922 18.7484 12.244 18.8333L17.5195 21.7863C17.8918 21.9947 18.3373 21.6711 18.2541 21.2526L17.0759 15.3227C17.042 15.1522 17.0991 14.9762 17.2268 14.8582L21.6655 10.7534C21.9788 10.4637 21.8086 9.94001 21.3849 9.88978L15.3812 9.17794C15.2085 9.15747 15.0589 9.04874 14.986 8.89084Z" fill="#A5947A" stroke="#A5947A" stroke-width="2" stroke-linecap="round" stroke-linejoin="round"/>
<path d="M42.986 8.89084L40.4538 3.40093C40.2751 3.01349 39.7244 3.01349 39.5457 3.40093L37.0135 8.89084C36.9406 9.04874 36.791 9.15747 36.6183 9.17794L30.6146 9.88978C30.1909 9.94001 30.0207 10.4637 30.334 10.7534L34.7727 14.8582C34.9004 14.9762 34.9575 15.1522 34.9236 15.3227L33.7454 21.2526C33.6622 21.6711 34.1077 21.9947 34.48 21.7863L39.7555 18.8333C39.9073 18.7484 40.0922 18.7484 40.244 18.8333L45.5195 21.7863C45.8918 21.9947 46.3373 21.6711 46.2541 21.2526L45.0759 15.3227C45.042 15.1522 45.0991 14.9762 45.2268 14.8582L49.6655 10.7534C49.9788 10.4637 49.8086 9.94001 49.3849 9.88978L43.3812 9.17794C43.2085 9.15747 43.0589 9.04874 42.986 8.89084Z" fill="#A5947A" stroke="#A5947A" stroke-width="2" stroke-linecap="round" stroke-linejoin="round"/>
<path d="M70.986 8.89084L68.4538 3.40093C68.2751 3.01349 67.7244 3.01349 67.5457 3.40093L65.0135 8.89084C64.9406 9.04874 64.791 9.15747 64.6183 9.17794L58.6146 9.88978C58.1909 9.94001 58.0207 10.4637 58.334 10.7534L62.7727 14.8582C62.9004 14.9762 62.9575 15.1522 62.9236 15.3227L61.7454 21.2526C61.6622 21.6711 62.1077 21.9947 62.48 21.7863L67.7555 18.8333C67.9073 18.7484 68.0922 18.7484 68.244 18.8333L73.5195 21.7863C73.8918 21.9947 74.3373 21.6711 74.2541 21.2526L73.0759 15.3227C73.042 15.1522 73.0991 14.9762 73.2268 14.8582L77.6655 10.7534C77.9788 10.4637 77.8086 9.94001 77.3849 9.88978L71.3812 9.17794C71.2085 9.15747 71.0589 9.04874 70.986 8.89084Z" fill="#A5947A" stroke="#A5947A" stroke-width="2" stroke-linecap="round" stroke-linejoin="round"/>
<path d="M98.986 8.89084L96.4538 3.40093C96.2751 3.01349 95.7244 3.01349 95.5457 3.40093L93.0135 8.89084C92.9406 9.04874 92.791 9.15747 92.6183 9.17794L86.6146 9.88978C86.1909 9.94001 86.0207 10.4637 86.334 10.7534L90.7727 14.8582C90.9004 14.9762 90.9575 15.1522 90.9236 15.3227L89.7454 21.2526C89.6622 21.6711 90.1077 21.9947 90.48 21.7863L95.7555 18.8333C95.9073 18.7484 96.0922 18.7484 96.244 18.8333L101.519 21.7863C101.892 21.9947 102.337 21.6711 102.254 21.2526L101.076 15.3227C101.042 15.1522 101.099 14.9762 101.227 14.8582L105.666 10.7534C105.979 10.4637 105.809 9.94001 105.385 9.88978L99.3812 9.17794C99.2085 9.15747 99.0589 9.04874 98.986 8.89084Z" fill="#A5947A" stroke="#A5947A" stroke-width="2" stroke-linecap="round" stroke-linejoin="round"/>
<path d="M126.986 8.89084L124.454 3.40093C124.275 3.01349 123.724 3.01349 123.546 3.40093L121.013 8.89084C120.941 9.04874 120.791 9.15747 120.618 9.17794L114.615 9.88978C114.191 9.94001 114.021 10.4637 114.334 10.7534L118.773 14.8582C118.9 14.9762 118.958 15.1522 118.924 15.3227L117.745 21.2526C117.662 21.6711 118.108 21.9947 118.48 21.7863L123.756 18.8333C123.907 18.7484 124.092 18.7484 124.244 18.8333L129.519 21.7863C129.892 21.9947 130.337 21.6711 130.254 21.2526L129.076 15.3227C129.042 15.1522 129.099 14.9762 129.227 14.8582L133.666 10.7534C133.979 10.4637 133.809 9.94001 133.385 9.88978L127.381 9.17794C127.209 9.15747 127.059 9.04874 126.986 8.89084Z" fill="#A5947A" stroke="#A5947A" stroke-width="2" stroke-linecap="round" stroke-linejoin="round"/>
</svg>
