<svg width="18" height="16" viewBox="0 0 18 16" fill="none" xmlns="http://www.w3.org/2000/svg">
<path d="M16.1498 4.49777C16.1612 4.65766 16.1612 4.81758 16.1612 4.97748C16.1612 9.85437 12.4493 15.4737 5.66499 15.4737C3.57488 15.4737 1.63326 14.8683 0 13.8176C0.296966 13.8519 0.582471 13.8633 0.890863 13.8633C2.61546 13.8633 4.20305 13.2808 5.47083 12.2872C3.84899 12.2529 2.48985 11.1907 2.02156 9.72876C2.25001 9.763 2.47842 9.78585 2.71829 9.78585C3.0495 9.78585 3.38074 9.74015 3.6891 9.66024C1.99875 9.31757 0.730936 7.83281 0.730936 6.03966V5.99399C1.22204 6.2681 1.79315 6.43942 2.39844 6.46224C1.40478 5.79978 0.753788 4.66908 0.753788 3.38988C0.753788 2.70462 0.936496 2.07644 1.25631 1.52821C3.07232 3.7668 5.80203 5.2287 8.86293 5.38863C8.80583 5.11452 8.77155 4.82901 8.77155 4.54347C8.77155 2.51045 10.4162 0.85437 12.4607 0.85437C13.5228 0.85437 14.4822 1.2998 15.1561 2.01935C15.9898 1.85946 16.7893 1.55106 17.4975 1.12848C17.2233 1.98511 16.6409 2.70465 15.8756 3.16147C16.618 3.08156 17.3376 2.87593 18 2.59043C17.4975 3.32136 16.8693 3.97236 16.1498 4.49777Z" fill="#1C1B1B"/>
</svg>
