<svg width="18" height="14" viewBox="0 0 18 14" fill="none" xmlns="http://www.w3.org/2000/svg">
<path d="M17.6239 11.7979C17.4169 12.6074 16.8069 13.2449 16.0325 13.4612C14.6288 13.8544 9 13.8544 9 13.8544C9 13.8544 3.37127 13.8544 1.96752 13.4612C1.19308 13.2449 0.583143 12.6074 0.376127 11.7979C0 10.3307 0 7.26958 0 7.26958C0 7.26958 0 4.20843 0.376127 2.74124C0.583143 1.93178 1.19308 1.32083 1.96752 1.10448C3.37127 0.711358 9 0.711359 9 0.711359C9 0.711359 14.6287 0.711358 16.0325 1.10448C16.8069 1.32083 17.4169 1.93178 17.6239 2.74124C18 4.20843 18 7.26958 18 7.26958C18 7.26958 18 10.3307 17.6239 11.7979ZM7.15908 4.49028V10.0489L11.8636 7.26952L7.15908 4.49028Z" fill="#1C1B1B"/>
</svg>
